<svg xmlns="http://www.w3.org/2000/svg" width="81" height="80" viewBox="0 0 81 80"><g transform="translate(-312 -640)"><g transform="translate(312.402 639.632)"><ellipse cx="40.5" cy="40" rx="40.5" ry="40" transform="translate(-0.402 0.368)" fill="#00b49d"/></g><path d="M33.447,93.588a.8.8,0,0,1,0,1.132l-7.839,7.839a.8.8,0,0,1-1.132-1.132l7.839-7.839a.8.8,0,0,1,1.132,0Zm-.3,6.56a1.585,1.585,0,1,1-1.585,1.585,1.586,1.586,0,0,1,1.585-1.585Zm-.017,1.585c0,.019.033.019.033,0S33.126,101.714,33.126,101.732Zm-6.238-7.839A1.585,1.585,0,1,1,25.3,92.308a1.587,1.587,0,0,1,1.585,1.585ZM25.3,93.876a.017.017,0,0,0,0,.033A.017.017,0,0,0,25.3,93.876ZM44.835,82H19.365a.8.8,0,0,0,0,1.6h25.47a1.6,1.6,0,0,1,1.6,1.6v25.219a1.6,1.6,0,0,1-1.6,1.6H14.611v-1.7a.8.8,0,0,0-1.6,0v1.7H3.2a1.6,1.6,0,0,1-1.6-1.6v-4.41a1.575,1.575,0,0,1,.823-1.4,7.712,7.712,0,0,0,0-13.6,1.575,1.575,0,0,1-.823-1.4V85.2a1.6,1.6,0,0,1,1.6-1.6H13.01v1.7a.8.8,0,0,0,1.6,0V82.8a.8.8,0,0,0-.8-.8H3.2A3.206,3.206,0,0,0,0,85.2v4.41a3.173,3.173,0,0,0,1.67,2.812,6.11,6.11,0,0,1,0,10.777A3.173,3.173,0,0,0,0,106.012v4.41a3.206,3.206,0,0,0,3.2,3.2H44.835a3.206,3.206,0,0,0,3.2-3.2V85.2A3.206,3.206,0,0,0,44.835,82ZM14.611,91.346a.8.8,0,0,0-1.6,0V94.48a.8.8,0,1,0,1.6,0Zm-.8,9a.8.8,0,0,0-.8.8v3.134a.8.8,0,1,0,1.6,0v-3.134A.8.8,0,0,0,13.811,100.344Z" transform="translate(328 582)" fill="#fff"/></g></svg>