<svg xmlns="http://www.w3.org/2000/svg" width="108" height="108" viewBox="0 0 108 108"><g transform="translate(-1131 -373)"><circle cx="54" cy="54" r="54" transform="translate(1131 373)" fill="#fff"/><g transform="translate(806 240)"><ellipse cx="40.5" cy="40" rx="40.5" ry="40" transform="translate(339 147)" fill="#00b49d"/><g transform="translate(359 166)"><g transform="translate(0)"><path d="M35.423,26.827a20.67,20.67,0,0,0-7.885-4.946,12,12,0,1,0-13.575,0A20.783,20.783,0,0,0,0,41.5H3.242a17.508,17.508,0,0,1,35.016,0H41.5A20.615,20.615,0,0,0,35.423,26.827ZM20.75,20.75A8.754,8.754,0,1,1,29.5,12,8.764,8.764,0,0,1,20.75,20.75Z" transform="translate(0)" fill="#fff"/></g></g></g></g></svg>